<?xml version="1.0" encoding="UTF-8" standalone="no"?>
<!-- Created with Inkscape (http://www.inkscape.org/) -->

<svg
   width="57.611198mm"
   height="78.430435mm"
   viewBox="0 0 57.611198 78.430435"
   version="1.1"
   id="svg2400"
   inkscape:export-filename="image.svg"
   inkscape:export-xdpi="96"
   inkscape:export-ydpi="96"
   xmlns:inkscape="http://www.inkscape.org/namespaces/inkscape"
   xmlns:sodipodi="http://sodipodi.sourceforge.net/DTD/sodipodi-0.dtd"
   xmlns="http://www.w3.org/2000/svg"
   xmlns:svg="http://www.w3.org/2000/svg">
  <sodipodi:namedview
     id="namedview2402"
     pagecolor="#ffffff"
     bordercolor="#000000"
     borderopacity="0.25"
     inkscape:showpageshadow="2"
     inkscape:pageopacity="0.0"
     inkscape:pagecheckerboard="0"
     inkscape:deskcolor="#d1d1d1"
     inkscape:document-units="mm"
     showgrid="false" />
  <defs
     id="defs2397" />
  <g
     inkscape:label="Calque 1"
     inkscape:groupmode="layer"
     id="layer1"
     transform="translate(-83.048349,-60.823179)">
    <g
       id="g7531"
       transform="matrix(0.35541918,0,0,-0.35541918,60.497408,213.93402)">
      <g
         id="g7517">
        <path
           fill="#ef3340"
           d="m 144.35492,352.1261 c 0,-0.25355 0.19592,-0.461 0.43219,-0.461 h 10.6607 c 0.23626,0 0.43219,0.20745 0.43219,0.461 v 2.76603 c 0,0.25354 -0.19593,0.461 -0.43219,0.461 h -10.6607 c -0.23627,0 -0.43219,-0.20746 -0.43219,-0.461 z m -11.23119,-0.35151 11.06408,9.27768 c 0.21897,0.18441 0.21897,0.52439 0,0.7088 l -11.06408,9.27192 a 0.4581219,0.4581219 0 0 1 -0.75489,-0.3515 v -3.61312 c 0,-0.1383 0.0577,-0.26508 0.16711,-0.35152 l 6.32727,-5.31306 -6.32727,-5.31306 a 0.46676571,0.46676571 0 0 1 -0.16711,-0.35152 v -3.61311 c 0,-0.39186 0.45523,-0.60506 0.75489,-0.35151 z m 32.20684,32.67936 h -42.4123 c -1.01997,0 -1.84401,-0.82405 -1.84401,-1.84401 v -42.4123 c 0,-1.01996 0.82404,-1.844 1.84401,-1.844 h 42.4123 c 1.01996,0 1.844,0.82404 1.844,1.844 v 42.4123 c 0,1.01996 -0.82404,1.84401 -1.844,1.84401 z m -2.30503,-41.95128 h -37.80226 v 37.80225 h 37.80226 z"
           id="path2010"
           style="stroke-width:0.0576253" />
      </g>
      <g
         id="g7521">
        <path
           d="m 201.04125,241.23195 v 0 c -6.81251,-8.7197 -15.7884,-15.90412 -25.77386,-20.61174 l -0.25452,-0.12723 -0.12726,0.1866 -26.66466,35.69309 c -0.89081,1.21295 -2.29064,1.90849 -3.69895,1.90849 -1.45922,0 -2.85905,-0.69554 -3.74986,-1.90849 l -26.79192,-35.87969 -0.25452,0.12723 c -9.99394,4.70762 -18.901963,11.89204 -25.773863,20.6796 l -0.195128,0.12723 0.195128,0.18661 56.570163,75.77995 26.92766,-36.07479 29.77824,-39.89177 z m 19.85216,161.10237 v 0 h -30.67752 c -2.54515,0 -4.64065,-2.10359 -4.64065,-4.64825 0,-2.54466 2.0955,-4.63976 4.64065,-4.63976 h 26.09625 V 285.44964 c 0,-4.13083 -0.44964,-8.45675 -1.21319,-12.85053 l -0.12725,-0.69554 -27.99663,36.51586 c -0.83142,1.1451 -2.23125,1.78126 -3.69047,1.78126 -1.4677,0 -2.79966,-0.69554 -3.69046,-1.84063 l -8.39899,-11.26436 -22.9742,30.79886 c -0.89081,1.14509 -2.29064,1.84063 -3.69895,1.84063 -1.45922,0 -2.85905,-0.69554 -3.74986,-1.84063 l -22.9742,-30.79886 -8.39899,11.26436 c -0.83141,1.14509 -2.23124,1.84063 -3.69046,1.84063 -1.46771,0 -2.79967,-0.63616 -3.69047,-1.78126 l -28.005112,-36.51586 -0.127257,0.69554 c -0.763544,4.39378 -1.145317,8.7197 -1.145317,12.85053 v 107.59667 h 26.028382 c 2.613024,0 4.649134,2.0951 4.649134,4.63976 0,2.54466 -2.03611,4.64825 -4.649134,4.64825 H 68.094591 c -2.545149,0 -4.645744,-2.10359 -4.645744,-4.64825 V 285.44964 c 0,-15.52242 4.391229,-30.66314 12.728286,-43.70876 1.908861,-2.92636 3.945828,-5.72548 6.109204,-8.27014 8.270035,-9.92417 18.968143,-17.81262 30.930333,-22.7747 0.69568,-0.3817 1.45922,-0.57679 2.22277,-0.57679 1.4677,0 2.86753,0.70402 3.75833,1.84912 l 25.32423,33.91182 0.25451,-0.32232 24.50978,-32.8261 0.44116,-0.57679 c 0.5769,-0.82278 1.39983,-1.39957 2.3585,-1.65403 l 0.25452,-0.12723 c 0.44115,-0.12724 0.8908,-0.18661 1.33196,-0.18661 0.63628,0 1.21318,0.12723 1.7816,0.3817 12.08945,4.96208 22.91482,12.9099 31.24594,22.90193 2.16337,2.54466 4.19949,5.34378 6.10835,8.27014 8.3396,13.04562 12.73423,28.18634 12.73423,43.70876 v 5.59825 106.63818 c 0,2.54466 -2.10399,4.64825 -4.64914,4.64825 z"
           style="fill:#10069f;fill-opacity:1;fill-rule:nonzero;stroke:none;stroke-width:0.848301"
           id="path362" />
        <path
           d="m 168.51426,402.33432 v 0 h -48.04391 l -1.08593,6.23441 0.50903,-0.19509 c 2.55363,-0.82277 5.28542,-1.27233 8.21234,-1.27233 6.49013,0 12.28458,2.29868 16.16169,6.42951 l 0.25452,0.25446 0.19512,-0.25446 c 3.8856,-4.13083 9.67157,-6.42951 16.22957,-6.42951 2.85905,0 5.59932,0.44956 8.14447,1.27233 l 0.50903,0.19509 z m 13.4299,23.79256 v 0 c 0,2.41743 -1.78161,4.45315 -4.1995,4.64824 -2.41789,0.18661 -4.58126,-1.46742 -4.96304,-3.81698 l -0.82293,-4.70762 c -1.59496,-3.63038 -5.79445,-5.92058 -11.012,-5.92058 -5.47207,0 -11.83494,2.61252 -11.83494,9.79694 0,2.54466 -2.03612,4.64824 -4.58975,4.64824 -2.60454,0 -4.64066,-2.10358 -4.64066,-4.64824 0,-7.18442 -6.36287,-9.79694 -11.77555,-9.79694 -5.21755,0 -9.48492,2.2902 -11.07139,5.92058 v 0.0594 l -0.83142,4.64825 c -0.38177,2.22233 -2.29063,3.81698 -4.58127,3.81698 -0.12725,0 -0.25451,0 -0.38177,0 -2.41789,-0.19509 -4.19949,-2.23081 -4.19949,-4.64824 0,-0.25447 0,-0.56831 0,-0.89063 0.19513,-1.20447 0.83141,-4.63976 1.01806,-5.34378 0,0 0,0 0,0 l 3.94498,-22.96979 c 0.38177,-2.22234 2.3585,-3.87637 4.58126,-3.87637 h 55.8151 c 2.29064,0 4.1995,1.65403 4.58127,3.87637 l 3.94498,22.91041 c 0,0 0,0 0,0 0.12726,0.69554 0.8908,4.3853 1.01806,5.65763 0,0.25446 0,0.44955 0,0.63616 z"
           style="fill:#10069f;fill-opacity:1;fill-rule:nonzero;stroke:none;stroke-width:0.848301"
           id="path372" />
      </g>
    </g>
  </g>
</svg>
