<svg version="1.1" xmlns="http://www.w3.org/2000/svg" viewBox="0 0 2629.6349206349273 1465.5170940170956" width="5259.269841269855" height="2931.034188034191">
  <!-- svg-source:excalidraw -->
  
  <defs>
    <style class="style-fonts">
      @font-face {
        font-family: "Virgil";
        src: url("https://excalidraw.com/Virgil.woff2");
      }
      @font-face {
        font-family: "Cascadia";
        src: url("https://excalidraw.com/Cascadia.woff2");
      }
    </style>
    
  </defs>
  <g stroke-linecap="round" transform="translate(200.4444444444439 126.46092796088305) rotate(0 526 239)"><path d="M32 0 M32 0 C249.26 0, 466.51 0, 1020 0 M32 0 C284.85 0, 537.71 0, 1020 0 M1020 0 C1041.33 0, 1052 10.67, 1052 32 M1020 0 C1041.33 0, 1052 10.67, 1052 32 M1052 32 C1052 136.98, 1052 241.96, 1052 446 M1052 32 C1052 171.23, 1052 310.46, 1052 446 M1052 446 C1052 467.33, 1041.33 478, 1020 478 M1052 446 C1052 467.33, 1041.33 478, 1020 478 M1020 478 C714.74 478, 409.49 478, 32 478 M1020 478 C736.17 478, 452.34 478, 32 478 M32 478 C10.67 478, 0 467.33, 0 446 M32 478 C10.67 478, 0 467.33, 0 446 M0 446 C0 301.84, 0 157.68, 0 32 M0 446 C0 317.21, 0 188.41, 0 32 M0 32 C0 10.67, 10.67 0, 32 0 M0 32 C0 10.67, 10.67 0, 32 0" stroke="#1e1e1e" stroke-width="4" fill="none"></path></g><g stroke-linecap="round" transform="translate(220.4444444444439 148.46092796088305) rotate(0 175 38)"><path d="M19 0 L335.45 0.3 L342.58 2.67 L345.25 4.75 L348.81 10.69 L350 19 L349.7 61.45 L348.81 65.31 L345.25 71.25 L339.31 74.81 L331 76 L14.55 75.7 L7.42 73.33 L2.67 68.58 L1.19 65.31 L0 57 L0 19 L1.19 10.69 L4.75 4.75 L10.69 1.19 L19 0" stroke="none" stroke-width="0" fill="#ff8787"></path><path d="M19 0 M19 0 C90.43 0, 161.86 0, 331 0 M19 0 C87.93 0, 156.85 0, 331 0 M331 0 C343.67 0, 350 6.33, 350 19 M331 0 C343.67 0, 350 6.33, 350 19 M350 19 C350 33.28, 350 47.55, 350 57 M350 19 C350 28.11, 350 37.21, 350 57 M350 57 C350 69.67, 343.67 76, 331 76 M350 57 C350 69.67, 343.67 76, 331 76 M331 76 C223.78 76, 116.57 76, 19 76 M331 76 C224.04 76, 117.08 76, 19 76 M19 76 C6.33 76, 0 69.67, 0 57 M19 76 C6.33 76, 0 69.67, 0 57 M0 57 C0 46.14, 0 35.29, 0 19 M0 57 C0 43.11, 0 29.22, 0 19 M0 19 C0 6.33, 6.33 0, 19 0 M0 19 C0 6.33, 6.33 0, 19 0" stroke="#1e1e1e" stroke-width="4" fill="none"></path></g><g stroke-linecap="round" transform="translate(591.1111111111104 149.294261294217) rotate(0 63.33333333333303 38)"><path d="M19 0 L107.67 0 L112.12 0.3 L119.24 2.67 L123.99 7.42 L126.37 14.55 L126.67 57 L125.48 65.31 L123.99 68.58 L119.24 73.33 L115.98 74.81 L107.67 76 L19 76 L14.55 75.7 L7.42 73.33 L2.67 68.58 L0.3 61.45 L0.3 14.55 L2.67 7.42 L7.42 2.67 L14.55 0.3 L19 0" stroke="none" stroke-width="0" fill="#ff8787"></path><path d="M19 0 M19 0 C44.93 0, 70.85 0, 107.67 0 M19 0 C42.58 0, 66.17 0, 107.67 0 M107.67 0 C120.33 0, 126.67 6.33, 126.67 19 M107.67 0 C120.33 0, 126.67 6.33, 126.67 19 M126.67 19 C126.67 33.89, 126.67 48.77, 126.67 57 M126.67 19 C126.67 28.6, 126.67 38.19, 126.67 57 M126.67 57 C126.67 69.67, 120.33 76, 107.67 76 M126.67 57 C126.67 69.67, 120.33 76, 107.67 76 M107.67 76 C75.9 76, 44.13 76, 19 76 M107.67 76 C72.46 76, 37.25 76, 19 76 M19 76 C6.33 76, 0 69.67, 0 57 M19 76 C6.33 76, 0 69.67, 0 57 M0 57 C0 47.76, 0 38.52, 0 19 M0 57 C0 42.5, 0 28.01, 0 19 M0 19 C0 6.33, 6.33 0, 19 0 M0 19 C0 6.33, 6.33 0, 19 0" stroke="#1e1e1e" stroke-width="4" fill="none"></path></g><g transform="translate(214.16666666666606 26.84981684977174) rotate(0 169.78125 38.66666666666697)"><text x="0" y="0" font-family="Cascadia, Segoe UI Emoji" font-size="64.44444444444493px" fill="#1e1e1e" text-anchor="start" style="white-space: pre;" direction="ltr" dominant-baseline="text-before-edge">.flex-row</text></g><g stroke-linecap="round"><g transform="translate(169.99999999999955 579.3498168497736) rotate(0 1.25 -217.5)"><path d="M0 0 C0.42 -72.5, 2.08 -362.5, 2.5 -435 M0 0 C0.42 -72.5, 2.08 -362.5, 2.5 -435" stroke="#1e1e1e" stroke-width="4" fill="none"></path></g><g transform="translate(169.99999999999955 579.3498168497736) rotate(0 1.25 -217.5)"><path d="M12.6 -406.75 C10.47 -412.7, 8.35 -418.64, 2.5 -435 M12.6 -406.75 C9.02 -416.76, 5.44 -426.77, 2.5 -435" stroke="#1e1e1e" stroke-width="4" fill="none"></path></g><g transform="translate(169.99999999999955 579.3498168497736) rotate(0 1.25 -217.5)"><path d="M-7.92 -406.87 C-5.73 -412.79, -3.54 -418.71, 2.5 -435 M-7.92 -406.87 C-4.23 -416.84, -0.54 -426.8, 2.5 -435" stroke="#1e1e1e" stroke-width="4" fill="none"></path></g></g><mask></mask><g stroke-linecap="round"><g transform="translate(206.24999999999955 629.3498168497736) rotate(0 522.9166666666665 0.41666666666696983)"><path d="M0 0 C174.31 0.14, 871.53 0.69, 1045.83 0.83 M0 0 C174.31 0.14, 871.53 0.69, 1045.83 0.83" stroke="#1e1e1e" stroke-width="4" fill="none"></path></g><g transform="translate(206.24999999999955 629.3498168497736) rotate(0 522.9166666666665 0.41666666666696983)"><path d="M1017.63 11.07 C1027.76 7.4, 1037.88 3.72, 1045.83 0.83 M1017.63 11.07 C1028.06 7.29, 1038.49 3.5, 1045.83 0.83" stroke="#1e1e1e" stroke-width="4" fill="none"></path></g><g transform="translate(206.24999999999955 629.3498168497736) rotate(0 522.9166666666665 0.41666666666696983)"><path d="M1017.65 -9.45 C1027.77 -5.76, 1037.89 -2.07, 1045.83 0.83 M1017.65 -9.45 C1028.07 -5.65, 1038.49 -1.85, 1045.83 0.83" stroke="#1e1e1e" stroke-width="4" fill="none"></path></g></g><mask></mask><g transform="translate(209.16666666666652 659.0079365078927) rotate(0 37.33333206176758 19.179487179487296)"><text x="0" y="0" font-family="Cascadia, Segoe UI Emoji" font-size="31.965811965812282px" fill="#1e1e1e" text-anchor="start" style="white-space: pre;" direction="ltr" dominant-baseline="text-before-edge">left</text></g><g transform="translate(642.9700854700923 656.6575091574668) rotate(0 56 19.179487179487296)"><text x="0" y="0" font-family="Cascadia, Segoe UI Emoji" font-size="31.96581196581228px" fill="#1e1e1e" text-anchor="start" style="white-space: pre;" direction="ltr" dominant-baseline="text-before-edge">center</text></g><g transform="translate(1155.363247863263 656.0164835164396) rotate(0 46.66666793823242 19.179487179487296)"><text x="0" y="0" font-family="Cascadia, Segoe UI Emoji" font-size="31.96581196581228px" fill="#1e1e1e" text-anchor="start" style="white-space: pre;" direction="ltr" dominant-baseline="text-before-edge">right</text></g><g transform="translate(80.13339419760587 137.6831501831075) rotate(0 30.5 20.764455264759818)"><text x="0" y="0" font-family="Cascadia, Segoe UI Emoji" font-size="34.607425441265974px" fill="#1e1e1e" text-anchor="start" style="white-space: pre;" direction="ltr" dominant-baseline="text-before-edge">top</text></g><g transform="translate(14.60742544126606 331.99690550872947) rotate(0 61 20.764455264759818)"><text x="0" y="0" font-family="Cascadia, Segoe UI Emoji" font-size="34.607425441265974px" fill="#1e1e1e" text-anchor="start" style="white-space: pre;" direction="ltr" dominant-baseline="text-before-edge">middle</text></g><g transform="translate(10 540.2637953443955) rotate(0 61 20.764455264759818)"><text x="0" y="0" font-family="Cascadia, Segoe UI Emoji" font-size="34.607425441265974px" fill="#1e1e1e" text-anchor="start" style="white-space: pre;" direction="ltr" dominant-baseline="text-before-edge">bottom</text></g><g stroke-linecap="round" transform="translate(740.8333333333335 148.01648351644144) rotate(0 63.33333333333303 38)"><path d="M19 0 L107.67 0 L112.12 0.3 L119.24 2.67 L123.99 7.42 L126.37 14.55 L126.67 57 L125.48 65.31 L123.99 68.58 L119.24 73.33 L115.98 74.81 L107.67 76 L19 76 L14.55 75.7 L7.42 73.33 L2.67 68.58 L0.3 61.45 L0.3 14.55 L2.67 7.42 L7.42 2.67 L14.55 0.3 L19 0" stroke="none" stroke-width="0" fill="#ff8787"></path><path d="M19 0 M19 0 C50.42 0, 81.84 0, 107.67 0 M19 0 C51.9 0, 84.79 0, 107.67 0 M107.67 0 C120.33 0, 126.67 6.33, 126.67 19 M107.67 0 C120.33 0, 126.67 6.33, 126.67 19 M126.67 19 C126.67 28.26, 126.67 37.52, 126.67 57 M126.67 19 C126.67 30.61, 126.67 42.22, 126.67 57 M126.67 57 C126.67 69.67, 120.33 76, 107.67 76 M126.67 57 C126.67 69.67, 120.33 76, 107.67 76 M107.67 76 C83.82 76, 59.98 76, 19 76 M107.67 76 C78.93 76, 50.2 76, 19 76 M19 76 C6.33 76, 0 69.67, 0 57 M19 76 C6.33 76, 0 69.67, 0 57 M0 57 C0 43.41, 0 29.81, 0 19 M0 57 C0 42.3, 0 27.59, 0 19 M0 19 C0 6.33, 6.33 0, 19 0 M0 19 C0 6.33, 6.33 0, 19 0" stroke="#1e1e1e" stroke-width="4" fill="none"></path></g><g stroke-linecap="round" transform="translate(1567.6349206349273 109.6111111111095) rotate(0 526 239)"><path d="M32 0 M32 0 C405.77 0, 779.55 0, 1020 0 M32 0 C276.78 0, 521.56 0, 1020 0 M1020 0 C1041.33 0, 1052 10.67, 1052 32 M1020 0 C1041.33 0, 1052 10.67, 1052 32 M1052 32 C1052 166.03, 1052 300.07, 1052 446 M1052 32 C1052 128.86, 1052 225.71, 1052 446 M1052 446 C1052 467.33, 1041.33 478, 1020 478 M1052 446 C1052 467.33, 1041.33 478, 1020 478 M1020 478 C685.67 478, 351.35 478, 32 478 M1020 478 C698.78 478, 377.57 478, 32 478 M32 478 C10.67 478, 0 467.33, 0 446 M32 478 C10.67 478, 0 467.33, 0 446 M0 446 C0 362.8, 0 279.59, 0 32 M0 446 C0 342.74, 0 239.49, 0 32 M0 32 C0 10.67, 10.67 0, 32 0 M0 32 C0 10.67, 10.67 0, 32 0" stroke="#1e1e1e" stroke-width="4" fill="none"></path></g><g stroke-linecap="round" transform="translate(1907.6349206349273 134.1111111111095) rotate(0 175 38)"><path d="M19 0 L335.45 0.3 L342.58 2.67 L345.25 4.75 L348.81 10.69 L350 19 L349.7 61.45 L348.81 65.31 L345.25 71.25 L339.31 74.81 L331 76 L14.55 75.7 L7.42 73.33 L2.67 68.58 L1.19 65.31 L0 57 L0 19 L1.19 10.69 L4.75 4.75 L10.69 1.19 L19 0" stroke="none" stroke-width="0" fill="#ff8787"></path><path d="M19 0 M19 0 C124.58 0, 230.15 0, 331 0 M19 0 C120.44 0, 221.87 0, 331 0 M331 0 C343.67 0, 350 6.33, 350 19 M331 0 C343.67 0, 350 6.33, 350 19 M350 19 C350 26.64, 350 34.27, 350 57 M350 19 C350 28.48, 350 37.96, 350 57 M350 57 C350 69.67, 343.67 76, 331 76 M350 57 C350 69.67, 343.67 76, 331 76 M331 76 C246.46 76, 161.93 76, 19 76 M331 76 C264.32 76, 197.64 76, 19 76 M19 76 C6.33 76, 0 69.67, 0 57 M19 76 C6.33 76, 0 69.67, 0 57 M0 57 C0 45.8, 0 34.61, 0 19 M0 57 C0 41.9, 0 26.8, 0 19 M0 19 C0 6.33, 6.33 0, 19 0 M0 19 C0 6.33, 6.33 0, 19 0" stroke="#1e1e1e" stroke-width="4" fill="none"></path></g><g stroke-linecap="round" transform="translate(2023.3015873015934 232.44444444444525) rotate(0 63.33333333333303 38)"><path d="M19 0 L107.67 0 L112.12 0.3 L119.24 2.67 L123.99 7.42 L126.37 14.55 L126.67 57 L125.48 65.31 L123.99 68.58 L119.24 73.33 L115.98 74.81 L107.67 76 L19 76 L14.55 75.7 L7.42 73.33 L2.67 68.58 L0.3 61.45 L0.3 14.55 L2.67 7.42 L7.42 2.67 L14.55 0.3 L19 0" stroke="none" stroke-width="0" fill="#ff8787"></path><path d="M19 0 M19 0 C52.7 0, 86.4 0, 107.67 0 M19 0 C45.81 0, 72.61 0, 107.67 0 M107.67 0 C120.33 0, 126.67 6.33, 126.67 19 M107.67 0 C120.33 0, 126.67 6.33, 126.67 19 M126.67 19 C126.67 27.79, 126.67 36.58, 126.67 57 M126.67 19 C126.67 33.41, 126.67 47.82, 126.67 57 M126.67 57 C126.67 69.67, 120.33 76, 107.67 76 M126.67 57 C126.67 69.67, 120.33 76, 107.67 76 M107.67 76 C85.61 76, 63.55 76, 19 76 M107.67 76 C76.55 76, 45.44 76, 19 76 M19 76 C6.33 76, 0 69.67, 0 57 M19 76 C6.33 76, 0 69.67, 0 57 M0 57 C0 43.93, 0 30.86, 0 19 M0 57 C0 46.07, 0 35.14, 0 19 M0 19 C0 6.33, 6.33 0, 19 0 M0 19 C0 6.33, 6.33 0, 19 0" stroke="#1e1e1e" stroke-width="4" fill="none"></path></g><g transform="translate(1581.35714285715 10) rotate(0 320.6979064941406 38.66666666666697)"><text x="0" y="0" font-family="Cascadia, Segoe UI Emoji" font-size="64.44444444444493px" fill="#1e1e1e" text-anchor="start" style="white-space: pre;" direction="ltr" dominant-baseline="text-before-edge">.flex-col center </text></g><g stroke-linecap="round"><g transform="translate(1537.190476190482 562.5) rotate(0 1.25 -217.5)"><path d="M0 0 C0.42 -72.5, 2.08 -362.5, 2.5 -435 M0 0 C0.42 -72.5, 2.08 -362.5, 2.5 -435" stroke="#1e1e1e" stroke-width="4" fill="none"></path></g><g transform="translate(1537.190476190482 562.5) rotate(0 1.25 -217.5)"><path d="M12.6 -406.75 C8.75 -417.5, 4.91 -428.26, 2.5 -435 M12.6 -406.75 C9.76 -414.69, 6.92 -422.62, 2.5 -435" stroke="#1e1e1e" stroke-width="4" fill="none"></path></g><g transform="translate(1537.190476190482 562.5) rotate(0 1.25 -217.5)"><path d="M-7.92 -406.87 C-3.96 -417.58, 0.01 -428.28, 2.5 -435 M-7.92 -406.87 C-4.99 -414.77, -2.07 -422.67, 2.5 -435" stroke="#1e1e1e" stroke-width="4" fill="none"></path></g></g><mask></mask><g stroke-linecap="round"><g transform="translate(1573.440476190482 612.5) rotate(0 522.9166666666665 0.41666666666696983)"><path d="M0 0 C174.31 0.14, 871.53 0.69, 1045.83 0.83 M0 0 C174.31 0.14, 871.53 0.69, 1045.83 0.83" stroke="#1e1e1e" stroke-width="4" fill="none"></path></g><g transform="translate(1573.440476190482 612.5) rotate(0 522.9166666666665 0.41666666666696983)"><path d="M1017.63 11.07 C1028.6 7.09, 1039.56 3.11, 1045.83 0.83 M1017.63 11.07 C1024.58 8.55, 1031.53 6.02, 1045.83 0.83" stroke="#1e1e1e" stroke-width="4" fill="none"></path></g><g transform="translate(1573.440476190482 612.5) rotate(0 522.9166666666665 0.41666666666696983)"><path d="M1017.65 -9.45 C1028.61 -5.45, 1039.56 -1.45, 1045.83 0.83 M1017.65 -9.45 C1024.6 -6.92, 1031.54 -4.38, 1045.83 0.83" stroke="#1e1e1e" stroke-width="4" fill="none"></path></g></g><mask></mask><g transform="translate(1576.35714285715 642.1581196581174) rotate(0 37.33333206176758 19.179487179487296)"><text x="0" y="0" font-family="Cascadia, Segoe UI Emoji" font-size="31.965811965812282px" fill="#1e1e1e" text-anchor="start" style="white-space: pre;" direction="ltr" dominant-baseline="text-before-edge">left</text></g><g transform="translate(2010.1605616605752 639.8076923076951) rotate(0 56 19.179487179487296)"><text x="0" y="0" font-family="Cascadia, Segoe UI Emoji" font-size="31.96581196581228px" fill="#1e1e1e" text-anchor="start" style="white-space: pre;" direction="ltr" dominant-baseline="text-before-edge">center</text></g><g transform="translate(2522.5537240537465 639.1666666666642) rotate(0 46.66666793823242 19.179487179487296)"><text x="0" y="0" font-family="Cascadia, Segoe UI Emoji" font-size="31.96581196581228px" fill="#1e1e1e" text-anchor="start" style="white-space: pre;" direction="ltr" dominant-baseline="text-before-edge">right</text></g><g transform="translate(1447.3238703880884 120.83333333333576) rotate(0 30.5 20.764455264759818)"><text x="0" y="0" font-family="Cascadia, Segoe UI Emoji" font-size="34.607425441265974px" fill="#1e1e1e" text-anchor="start" style="white-space: pre;" direction="ltr" dominant-baseline="text-before-edge">top</text></g><g transform="translate(1381.797901631749 315.1470886589559) rotate(0 61 20.764455264759818)"><text x="0" y="0" font-family="Cascadia, Segoe UI Emoji" font-size="34.607425441265974px" fill="#1e1e1e" text-anchor="start" style="white-space: pre;" direction="ltr" dominant-baseline="text-before-edge">middle</text></g><g transform="translate(1377.1904761904839 523.4139784946237) rotate(0 61 20.764455264759818)"><text x="0" y="0" font-family="Cascadia, Segoe UI Emoji" font-size="34.607425441265974px" fill="#1e1e1e" text-anchor="start" style="white-space: pre;" direction="ltr" dominant-baseline="text-before-edge">bottom</text></g><g stroke-linecap="round" transform="translate(2023.023809523816 333.6666666666679) rotate(0 63.33333333333303 38)"><path d="M19 0 L107.67 0 L112.12 0.3 L119.24 2.67 L123.99 7.42 L126.37 14.55 L126.67 57 L125.48 65.31 L123.99 68.58 L119.24 73.33 L115.98 74.81 L107.67 76 L19 76 L14.55 75.7 L7.42 73.33 L2.67 68.58 L0.3 61.45 L0.3 14.55 L2.67 7.42 L7.42 2.67 L14.55 0.3 L19 0" stroke="none" stroke-width="0" fill="#ff8787"></path><path d="M19 0 M19 0 C44.69 0, 70.37 0, 107.67 0 M19 0 C43.23 0, 67.46 0, 107.67 0 M107.67 0 C120.33 0, 126.67 6.33, 126.67 19 M107.67 0 C120.33 0, 126.67 6.33, 126.67 19 M126.67 19 C126.67 33.91, 126.67 48.82, 126.67 57 M126.67 19 C126.67 32.76, 126.67 46.52, 126.67 57 M126.67 57 C126.67 69.67, 120.33 76, 107.67 76 M126.67 57 C126.67 69.67, 120.33 76, 107.67 76 M107.67 76 C82.1 76, 56.54 76, 19 76 M107.67 76 C85.66 76, 63.64 76, 19 76 M19 76 C6.33 76, 0 69.67, 0 57 M19 76 C6.33 76, 0 69.67, 0 57 M0 57 C0 45.97, 0 34.93, 0 19 M0 57 C0 46.27, 0 35.55, 0 19 M0 19 C0 6.33, 6.33 0, 19 0 M0 19 C0 6.33, 6.33 0, 19 0" stroke="#1e1e1e" stroke-width="4" fill="none"></path></g><g stroke-linecap="round" transform="translate(1540.1349206349255 884.6111111111131) rotate(0 526 239)"><path d="M32 0 M32 0 C377.58 0, 723.17 0, 1020 0 M32 0 C393.17 0, 754.34 0, 1020 0 M1020 0 C1041.33 0, 1052 10.67, 1052 32 M1020 0 C1041.33 0, 1052 10.67, 1052 32 M1052 32 C1052 167.35, 1052 302.7, 1052 446 M1052 32 C1052 119.21, 1052 206.42, 1052 446 M1052 446 C1052 467.33, 1041.33 478, 1020 478 M1052 446 C1052 467.33, 1041.33 478, 1020 478 M1020 478 C782.22 478, 544.44 478, 32 478 M1020 478 C818.49 478, 616.98 478, 32 478 M32 478 C10.67 478, 0 467.33, 0 446 M32 478 C10.67 478, 0 467.33, 0 446 M0 446 C0 316.29, 0 186.57, 0 32 M0 446 C0 287.35, 0 128.7, 0 32 M0 32 C0 10.67, 10.67 0, 32 0 M0 32 C0 10.67, 10.67 0, 32 0" stroke="#1e1e1e" stroke-width="4" fill="none"></path></g><g stroke-linecap="round" transform="translate(1880.1349206349255 909.1111111111131) rotate(0 175 38)"><path d="M19 0 L335.45 0.3 L342.58 2.67 L345.25 4.75 L348.81 10.69 L350 19 L349.7 61.45 L348.81 65.31 L345.25 71.25 L339.31 74.81 L331 76 L14.55 75.7 L7.42 73.33 L2.67 68.58 L1.19 65.31 L0 57 L0 19 L1.19 10.69 L4.75 4.75 L10.69 1.19 L19 0" stroke="none" stroke-width="0" fill="#ff8787"></path><path d="M19 0 M19 0 C94.09 0, 169.18 0, 331 0 M19 0 C82.63 0, 146.27 0, 331 0 M331 0 C343.67 0, 350 6.33, 350 19 M331 0 C343.67 0, 350 6.33, 350 19 M350 19 C350 30.91, 350 42.81, 350 57 M350 19 C350 33.56, 350 48.12, 350 57 M350 57 C350 69.67, 343.67 76, 331 76 M350 57 C350 69.67, 343.67 76, 331 76 M331 76 C263.42 76, 195.83 76, 19 76 M331 76 C238.62 76, 146.23 76, 19 76 M19 76 C6.33 76, 0 69.67, 0 57 M19 76 C6.33 76, 0 69.67, 0 57 M0 57 C0 46.44, 0 35.88, 0 19 M0 57 C0 45.83, 0 34.65, 0 19 M0 19 C0 6.33, 6.33 0, 19 0 M0 19 C0 6.33, 6.33 0, 19 0" stroke="#1e1e1e" stroke-width="4" fill="none"></path></g><g stroke-linecap="round" transform="translate(1993.3015873015934 1082.444444444449) rotate(0 63.33333333333303 38)"><path d="M19 0 L107.67 0 L112.12 0.3 L119.24 2.67 L123.99 7.42 L126.37 14.55 L126.67 57 L125.48 65.31 L123.99 68.58 L119.24 73.33 L115.98 74.81 L107.67 76 L19 76 L14.55 75.7 L7.42 73.33 L2.67 68.58 L0.3 61.45 L0.3 14.55 L2.67 7.42 L7.42 2.67 L14.55 0.3 L19 0" stroke="none" stroke-width="0" fill="#ff8787"></path><path d="M19 0 M19 0 C48.44 0, 77.88 0, 107.67 0 M19 0 C44.03 0, 69.05 0, 107.67 0 M107.67 0 C120.33 0, 126.67 6.33, 126.67 19 M107.67 0 C120.33 0, 126.67 6.33, 126.67 19 M126.67 19 C126.67 29.51, 126.67 40.01, 126.67 57 M126.67 19 C126.67 33.65, 126.67 48.3, 126.67 57 M126.67 57 C126.67 69.67, 120.33 76, 107.67 76 M126.67 57 C126.67 69.67, 120.33 76, 107.67 76 M107.67 76 C75.27 76, 42.87 76, 19 76 M107.67 76 C77.45 76, 47.23 76, 19 76 M19 76 C6.33 76, 0 69.67, 0 57 M19 76 C6.33 76, 0 69.67, 0 57 M0 57 C0 45.45, 0 33.9, 0 19 M0 57 C0 42.63, 0 28.27, 0 19 M0 19 C0 6.33, 6.33 0, 19 0 M0 19 C0 6.33, 6.33 0, 19 0" stroke="#1e1e1e" stroke-width="4" fill="none"></path></g><g transform="translate(1553.8571428571481 785.0000000000036) rotate(0 396.15625 38.66666666666697)"><text x="0" y="0" font-family="Cascadia, Segoe UI Emoji" font-size="64.44444444444493px" fill="#1e1e1e" text-anchor="start" style="white-space: pre;" direction="ltr" dominant-baseline="text-before-edge">.flex-col center btw </text></g><g stroke-linecap="round"><g transform="translate(1509.6904761904802 1337.5000000000036) rotate(0 1.25 -217.5)"><path d="M0 0 C0.42 -72.5, 2.08 -362.5, 2.5 -435 M0 0 C0.42 -72.5, 2.08 -362.5, 2.5 -435" stroke="#1e1e1e" stroke-width="4" fill="none"></path></g><g transform="translate(1509.6904761904802 1337.5000000000036) rotate(0 1.25 -217.5)"><path d="M12.6 -406.75 C9.39 -415.71, 6.19 -424.67, 2.5 -435 M12.6 -406.75 C9.59 -415.16, 6.59 -423.56, 2.5 -435" stroke="#1e1e1e" stroke-width="4" fill="none"></path></g><g transform="translate(1509.6904761904802 1337.5000000000036) rotate(0 1.25 -217.5)"><path d="M-7.92 -406.87 C-4.62 -415.79, -1.31 -424.72, 2.5 -435 M-7.92 -406.87 C-4.82 -415.24, -1.72 -423.61, 2.5 -435" stroke="#1e1e1e" stroke-width="4" fill="none"></path></g></g><mask></mask><g stroke-linecap="round"><g transform="translate(1545.9404761904802 1387.5000000000036) rotate(0 522.9166666666665 0.41666666666696983)"><path d="M0 0 C174.31 0.14, 871.53 0.69, 1045.83 0.83 M0 0 C174.31 0.14, 871.53 0.69, 1045.83 0.83" stroke="#1e1e1e" stroke-width="4" fill="none"></path></g><g transform="translate(1545.9404761904802 1387.5000000000036) rotate(0 522.9166666666665 0.41666666666696983)"><path d="M1017.63 11.07 C1026.13 7.99, 1034.63 4.9, 1045.83 0.83 M1017.63 11.07 C1027.78 7.39, 1037.93 3.7, 1045.83 0.83" stroke="#1e1e1e" stroke-width="4" fill="none"></path></g><g transform="translate(1545.9404761904802 1387.5000000000036) rotate(0 522.9166666666665 0.41666666666696983)"><path d="M1017.65 -9.45 C1026.14 -6.35, 1034.64 -3.25, 1045.83 0.83 M1017.65 -9.45 C1027.79 -5.75, 1037.93 -2.05, 1045.83 0.83" stroke="#1e1e1e" stroke-width="4" fill="none"></path></g></g><mask></mask><g transform="translate(1548.8571428571481 1417.158119658121) rotate(0 37.33333206176758 19.179487179487296)"><text x="0" y="0" font-family="Cascadia, Segoe UI Emoji" font-size="31.965811965812282px" fill="#1e1e1e" text-anchor="start" style="white-space: pre;" direction="ltr" dominant-baseline="text-before-edge">left</text></g><g transform="translate(1982.6605616605734 1414.8076923076987) rotate(0 56 19.179487179487296)"><text x="0" y="0" font-family="Cascadia, Segoe UI Emoji" font-size="31.96581196581228px" fill="#1e1e1e" text-anchor="start" style="white-space: pre;" direction="ltr" dominant-baseline="text-before-edge">center</text></g><g transform="translate(2495.0537240537446 1414.1666666666679) rotate(0 46.66666793823242 19.179487179487296)"><text x="0" y="0" font-family="Cascadia, Segoe UI Emoji" font-size="31.96581196581228px" fill="#1e1e1e" text-anchor="start" style="white-space: pre;" direction="ltr" dominant-baseline="text-before-edge">right</text></g><g transform="translate(1419.8238703880866 895.8333333333394) rotate(0 30.5 20.764455264759818)"><text x="0" y="0" font-family="Cascadia, Segoe UI Emoji" font-size="34.607425441265974px" fill="#1e1e1e" text-anchor="start" style="white-space: pre;" direction="ltr" dominant-baseline="text-before-edge">top</text></g><g transform="translate(1354.2979016317472 1090.147088658956) rotate(0 61 20.764455264759818)"><text x="0" y="0" font-family="Cascadia, Segoe UI Emoji" font-size="34.607425441265974px" fill="#1e1e1e" text-anchor="start" style="white-space: pre;" direction="ltr" dominant-baseline="text-before-edge">middle</text></g><g transform="translate(1349.690476190482 1298.4139784946274) rotate(0 61 20.764455264759818)"><text x="0" y="0" font-family="Cascadia, Segoe UI Emoji" font-size="34.607425441265974px" fill="#1e1e1e" text-anchor="start" style="white-space: pre;" direction="ltr" dominant-baseline="text-before-edge">bottom</text></g><g stroke-linecap="round" transform="translate(1993.023809523816 1268.6666666666679) rotate(0 63.33333333333303 38)"><path d="M19 0 L107.67 0 L112.12 0.3 L119.24 2.67 L123.99 7.42 L126.37 14.55 L126.67 57 L125.48 65.31 L123.99 68.58 L119.24 73.33 L115.98 74.81 L107.67 76 L19 76 L14.55 75.7 L7.42 73.33 L2.67 68.58 L0.3 61.45 L0.3 14.55 L2.67 7.42 L7.42 2.67 L14.55 0.3 L19 0" stroke="none" stroke-width="0" fill="#ff8787"></path><path d="M19 0 M19 0 C43.64 0, 68.28 0, 107.67 0 M19 0 C41.72 0, 64.44 0, 107.67 0 M107.67 0 C120.33 0, 126.67 6.33, 126.67 19 M107.67 0 C120.33 0, 126.67 6.33, 126.67 19 M126.67 19 C126.67 27.89, 126.67 36.77, 126.67 57 M126.67 19 C126.67 33.1, 126.67 47.21, 126.67 57 M126.67 57 C126.67 69.67, 120.33 76, 107.67 76 M126.67 57 C126.67 69.67, 120.33 76, 107.67 76 M107.67 76 C84.45 76, 61.23 76, 19 76 M107.67 76 C86.9 76, 66.13 76, 19 76 M19 76 C6.33 76, 0 69.67, 0 57 M19 76 C6.33 76, 0 69.67, 0 57 M0 57 C0 44.43, 0 31.87, 0 19 M0 57 C0 45.87, 0 34.75, 0 19 M0 19 C0 6.33, 6.33 0, 19 0 M0 19 C0 6.33, 6.33 0, 19 0" stroke="#1e1e1e" stroke-width="4" fill="none"></path></g><g stroke-linecap="round" transform="translate(225.13492063492686 849.6111111111095) rotate(0 526.0000000000002 239)"><path d="M32 0 M32 0 C329.36 0, 626.72 0, 1020 0 M32 0 C297.98 0, 563.96 0, 1020 0 M1020 0 C1041.33 0, 1052 10.67, 1052 32 M1020 0 C1041.33 0, 1052 10.67, 1052 32 M1052 32 C1052 118.47, 1052 204.95, 1052 446 M1052 32 C1052 175.59, 1052 319.19, 1052 446 M1052 446 C1052 467.33, 1041.33 478, 1020 478 M1052 446 C1052 467.33, 1041.33 478, 1020 478 M1020 478 C700.44 478, 380.88 478, 32 478 M1020 478 C697.88 478, 375.76 478, 32 478 M32 478 C10.67 478, 0 467.33, 0 446 M32 478 C10.67 478, 0 467.33, 0 446 M0 446 C0 335.39, 0 224.77, 0 32 M0 446 C0 349.94, 0 253.88, 0 32 M0 32 C0 10.67, 10.67 0, 32 0 M0 32 C0 10.67, 10.67 0, 32 0" stroke="#1e1e1e" stroke-width="4" fill="none"></path></g><g stroke-linecap="round" transform="translate(237.13492063492686 1037.6111111111095) rotate(0 175 38)"><path d="M19 0 L335.45 0.3 L342.58 2.67 L345.25 4.75 L348.81 10.69 L350 19 L349.7 61.45 L348.81 65.31 L345.25 71.25 L339.31 74.81 L331 76 L14.55 75.7 L7.42 73.33 L2.67 68.58 L1.19 65.31 L0 57 L0 19 L1.19 10.69 L4.75 4.75 L10.69 1.19 L19 0" stroke="none" stroke-width="0" fill="#ff8787"></path><path d="M19 0 M19 0 C119.91 0, 220.83 0, 331 0 M19 0 C120.72 0, 222.45 0, 331 0 M331 0 C343.67 0, 350 6.33, 350 19 M331 0 C343.67 0, 350 6.33, 350 19 M350 19 C350 29.15, 350 39.31, 350 57 M350 19 C350 27.82, 350 36.63, 350 57 M350 57 C350 69.67, 343.67 76, 331 76 M350 57 C350 69.67, 343.67 76, 331 76 M331 76 C226.46 76, 121.92 76, 19 76 M331 76 C234.83 76, 138.66 76, 19 76 M19 76 C6.33 76, 0 69.67, 0 57 M19 76 C6.33 76, 0 69.67, 0 57 M0 57 C0 42.25, 0 27.49, 0 19 M0 57 C0 48.55, 0 40.09, 0 19 M0 19 C0 6.33, 6.33 0, 19 0 M0 19 C0 6.33, 6.33 0, 19 0" stroke="#1e1e1e" stroke-width="4" fill="none"></path></g><g stroke-linecap="round" transform="translate(591.8015873015929 1038.4444444444453) rotate(0 63.33333333333303 38)"><path d="M19 0 L107.67 0 L112.12 0.3 L119.24 2.67 L123.99 7.42 L126.37 14.55 L126.67 57 L125.48 65.31 L123.99 68.58 L119.24 73.33 L115.98 74.81 L107.67 76 L19 76 L14.55 75.7 L7.42 73.33 L2.67 68.58 L0.3 61.45 L0.3 14.55 L2.67 7.42 L7.42 2.67 L14.55 0.3 L19 0" stroke="none" stroke-width="0" fill="#ff8787"></path><path d="M19 0 M19 0 C50.33 0, 81.67 0, 107.67 0 M19 0 C41.54 0, 64.09 0, 107.67 0 M107.67 0 C120.33 0, 126.67 6.33, 126.67 19 M107.67 0 C120.33 0, 126.67 6.33, 126.67 19 M126.67 19 C126.67 32.26, 126.67 45.51, 126.67 57 M126.67 19 C126.67 33.15, 126.67 47.3, 126.67 57 M126.67 57 C126.67 69.67, 120.33 76, 107.67 76 M126.67 57 C126.67 69.67, 120.33 76, 107.67 76 M107.67 76 C89.23 76, 70.8 76, 19 76 M107.67 76 C73.45 76, 39.23 76, 19 76 M19 76 C6.33 76, 0 69.67, 0 57 M19 76 C6.33 76, 0 69.67, 0 57 M0 57 C0 47.68, 0 38.36, 0 19 M0 57 C0 43.59, 0 30.18, 0 19 M0 19 C0 6.33, 6.33 0, 19 0 M0 19 C0 6.33, 6.33 0, 19 0" stroke="#1e1e1e" stroke-width="4" fill="none"></path></g><g transform="translate(238.85714285714948 750) rotate(0 433.88540649414085 38.66666666666697)"><text x="0" y="0" font-family="Cascadia, Segoe UI Emoji" font-size="64.44444444444493px" fill="#1e1e1e" text-anchor="start" style="white-space: pre;" direction="ltr" dominant-baseline="text-before-edge">.flex-row middle no-gap</text></g><g stroke-linecap="round"><g transform="translate(194.6904761904825 1302.5) rotate(0 1.25 -217.5)"><path d="M0 0 C0.42 -72.5, 2.08 -362.5, 2.5 -435 M0 0 C0.42 -72.5, 2.08 -362.5, 2.5 -435" stroke="#1e1e1e" stroke-width="4" fill="none"></path></g><g transform="translate(194.6904761904825 1302.5) rotate(0 1.25 -217.5)"><path d="M12.6 -406.75 C10.13 -413.64, 7.67 -420.54, 2.5 -435 M12.6 -406.75 C9.06 -416.66, 5.52 -426.57, 2.5 -435" stroke="#1e1e1e" stroke-width="4" fill="none"></path></g><g transform="translate(194.6904761904825 1302.5) rotate(0 1.25 -217.5)"><path d="M-7.92 -406.87 C-5.38 -413.73, -2.84 -420.6, 2.5 -435 M-7.92 -406.87 C-4.27 -416.73, -0.61 -426.6, 2.5 -435" stroke="#1e1e1e" stroke-width="4" fill="none"></path></g></g><mask></mask><g stroke-linecap="round"><g transform="translate(230.9404761904825 1352.5) rotate(0 522.9166666666667 0.41666666666696983)"><path d="M0 0 C174.31 0.14, 871.53 0.69, 1045.83 0.83 M0 0 C174.31 0.14, 871.53 0.69, 1045.83 0.83" stroke="#1e1e1e" stroke-width="4" fill="none"></path></g><g transform="translate(230.9404761904825 1352.5) rotate(0 522.9166666666667 0.41666666666696983)"><path d="M1017.63 11.07 C1027.2 7.6, 1036.76 4.13, 1045.83 0.83 M1017.63 11.07 C1023.32 9.01, 1029.01 6.94, 1045.83 0.83" stroke="#1e1e1e" stroke-width="4" fill="none"></path></g><g transform="translate(230.9404761904825 1352.5) rotate(0 522.9166666666667 0.41666666666696983)"><path d="M1017.65 -9.45 C1027.21 -5.96, 1036.76 -2.48, 1045.83 0.83 M1017.65 -9.45 C1023.33 -7.38, 1029.02 -5.3, 1045.83 0.83" stroke="#1e1e1e" stroke-width="4" fill="none"></path></g></g><mask></mask><g transform="translate(233.85714285714948 1382.1581196581174) rotate(0 37.33333206176758 19.179487179487296)"><text x="0" y="0" font-family="Cascadia, Segoe UI Emoji" font-size="31.965811965812282px" fill="#1e1e1e" text-anchor="start" style="white-space: pre;" direction="ltr" dominant-baseline="text-before-edge">left</text></g><g transform="translate(667.6605616605748 1379.807692307695) rotate(0 56.00000000000023 19.179487179487296)"><text x="0" y="0" font-family="Cascadia, Segoe UI Emoji" font-size="31.96581196581228px" fill="#1e1e1e" text-anchor="start" style="white-space: pre;" direction="ltr" dominant-baseline="text-before-edge">center</text></g><g transform="translate(1180.0537240537465 1379.1666666666642) rotate(0 46.66666793823242 19.179487179487296)"><text x="0" y="0" font-family="Cascadia, Segoe UI Emoji" font-size="31.96581196581228px" fill="#1e1e1e" text-anchor="start" style="white-space: pre;" direction="ltr" dominant-baseline="text-before-edge">right</text></g><g transform="translate(104.82387038808884 860.8333333333358) rotate(0 30.5 20.764455264759818)"><text x="0" y="0" font-family="Cascadia, Segoe UI Emoji" font-size="34.607425441265974px" fill="#1e1e1e" text-anchor="start" style="white-space: pre;" direction="ltr" dominant-baseline="text-before-edge">top</text></g><g transform="translate(39.29790163174857 1055.147088658956) rotate(0 61 20.764455264759818)"><text x="0" y="0" font-family="Cascadia, Segoe UI Emoji" font-size="34.607425441265974px" fill="#1e1e1e" text-anchor="start" style="white-space: pre;" direction="ltr" dominant-baseline="text-before-edge">middle</text></g><g transform="translate(34.69047619048342 1263.4139784946237) rotate(0 61 20.764455264759818)"><text x="0" y="0" font-family="Cascadia, Segoe UI Emoji" font-size="34.607425441265974px" fill="#1e1e1e" text-anchor="start" style="white-space: pre;" direction="ltr" dominant-baseline="text-before-edge">bottom</text></g><g stroke-linecap="round" transform="translate(719.523809523816 1037.9848047839314) rotate(0 63.33333333333303 38)"><path d="M19 0 L107.67 0 L112.12 0.3 L119.24 2.67 L123.99 7.42 L126.37 14.55 L126.67 57 L125.48 65.31 L123.99 68.58 L119.24 73.33 L115.98 74.81 L107.67 76 L19 76 L14.55 75.7 L7.42 73.33 L2.67 68.58 L0.3 61.45 L0.3 14.55 L2.67 7.42 L7.42 2.67 L14.55 0.3 L19 0" stroke="none" stroke-width="0" fill="#ff8787"></path><path d="M19 0 M19 0 C39.7 0, 60.39 0, 107.67 0 M19 0 C42.64 0, 66.28 0, 107.67 0 M107.67 0 C120.33 0, 126.67 6.33, 126.67 19 M107.67 0 C120.33 0, 126.67 6.33, 126.67 19 M126.67 19 C126.67 26.7, 126.67 34.39, 126.67 57 M126.67 19 C126.67 30.59, 126.67 42.18, 126.67 57 M126.67 57 C126.67 69.67, 120.33 76, 107.67 76 M126.67 57 C126.67 69.67, 120.33 76, 107.67 76 M107.67 76 C73.37 76, 39.07 76, 19 76 M107.67 76 C76.81 76, 45.96 76, 19 76 M19 76 C6.33 76, 0 69.67, 0 57 M19 76 C6.33 76, 0 69.67, 0 57 M0 57 C0 42.05, 0 27.09, 0 19 M0 57 C0 42.57, 0 28.14, 0 19 M0 19 C0 6.33, 6.33 0, 19 0 M0 19 C0 6.33, 6.33 0, 19 0" stroke="#1e1e1e" stroke-width="4" fill="none"></path></g></svg>