<?xml version="1.0" encoding="UTF-8" standalone="no"?>
<!-- Created with Inkscape (http://www.inkscape.org/) -->

<svg
   width="72.31192mm"
   height="72.311913mm"
   viewBox="0 0 72.311921 72.311912"
   version="1.1"
   id="svg2400"
   inkscape:export-filename="image.svg"
   inkscape:export-xdpi="96"
   inkscape:export-ydpi="96"
   sodipodi:docname="logo.svg"
   inkscape:version="1.2.1 (9c6d41e410, 2022-07-14)"
   xmlns:inkscape="http://www.inkscape.org/namespaces/inkscape"
   xmlns:sodipodi="http://sodipodi.sourceforge.net/DTD/sodipodi-0.dtd"
   xmlns="http://www.w3.org/2000/svg"
   xmlns:svg="http://www.w3.org/2000/svg">
  <sodipodi:namedview
     id="namedview2402"
     pagecolor="#ffffff"
     bordercolor="#000000"
     borderopacity="0.25"
     inkscape:showpageshadow="2"
     inkscape:pageopacity="0.0"
     inkscape:pagecheckerboard="0"
     inkscape:deskcolor="#d1d1d1"
     inkscape:document-units="mm"
     showgrid="false"
     inkscape:zoom="1.0400726"
     inkscape:cx="91.33978"
     inkscape:cy="105.28111"
     inkscape:window-width="1920"
     inkscape:window-height="991"
     inkscape:window-x="-9"
     inkscape:window-y="-9"
     inkscape:window-maximized="1"
     inkscape:current-layer="g7531" />
  <defs
     id="defs2397" />
  <g
     inkscape:label="Calque 1"
     inkscape:groupmode="layer"
     id="layer1"
     transform="translate(-75.76296,-65.869996)">
    <g
       id="g7531"
       transform="matrix(0.35541918,0,0,-0.35541918,60.497408,213.93402)">
      <path
         fill="#ef3340"
         d="m 165.33057,384.45395 h -42.4123 c -1.01997,0 -1.84401,-0.82405 -1.84401,-1.84401 v -42.4123 c 0,-1.01996 0.82404,-1.844 1.84401,-1.844 h 42.4123 c 1.01996,0 1.844,0.82404 1.844,1.844 v 42.4123 c 0,1.01996 -0.82404,1.84401 -1.844,1.84401 z m -2.30503,-41.95128 h -37.80226 v 37.80225 h 37.80226 z"
         id="path2010"
         style="fill:#10069f;fill-opacity:1;stroke-width:0.0576253"
         transform="matrix(4.413317,0,0,4.413317,-491.38825,-1280.1273)"
         sodipodi:nodetypes="sssssssssccccc" />
      <path
         d="m 149.44579,286.60604 c 0,1.44281 1.11486,2.62331 2.45936,2.62331 h 60.66467 c 1.34446,0 2.4594,-1.1805 2.4594,-2.62331 v -15.74008 c 0,-1.44278 -1.11494,-2.62334 -2.4594,-2.62334 h -60.66467 c -1.3445,0 -2.45936,1.18056 -2.45936,2.62334 z"
         style="fill:#ef3340;stroke-width:0.209053"
         id="path3281"
         inkscape:label="rectangle" />
      <path
         d="m 83.926694,364.56571 55.085976,-46.19186 c 1.09021,-0.91813 1.09021,-2.61086 0,-3.52899 L 83.926694,268.68168 c -1.485778,-1.26346 -3.769111,-0.20029 -3.75846,1.75007 v 17.98904 c 0,0.68857 0.287288,1.3198 0.83201,1.75014 l 31.502296,26.45276 -31.502296,26.45274 c -0.518942,0.43417 -0.822747,1.07344 -0.83201,1.75014 v 17.98903 c 0,1.951 2.266509,3.01248 3.75846,1.75011 z"
         style="fill:#10069f;fill-opacity:1;stroke-width:0.182908"
         id="path3304"
         inkscape:label="arrow" />
    </g>
  </g>
</svg>
